# xmcd
#
# Track frame offsets:
#	150
#	44124
#	112051
#	155550
#	161403
#	206997
#
# Disc length: 3212 seconds
#
# Revision: 0
# Processed by: cddbd v1.5.2PL0 Copyright (c) Steve Scherf et al.
# Submitted via: EasyCDDAExtractor 10.0.3.1
#
DISCID=570c8a06
DTITLE=Mike Bloomfield and Friends - Live at the Fillmore West
DYEAR=1969
DGENRE=Blues
TTITLE0=Born In Chicago
TTITLE1=Blues On The Westside
TTITLE2=Its About Time
TTITLE3=Tuning
TTITLE4=Sweet Little Angel
TTITLE5=Instrumental
EXTD=
EXTT0=
EXTT1=
EXTT2=
EXTT3=
EXTT4=
EXTT5=
PLAYORDER=
